<mxfile host="app.diagrams.net" agent="Mozilla/5.0 (Windows NT 10.0; Win64; x64) AppleWebKit/537.36 (KHTML, like Gecko) Chrome/135.0.0.0 Safari/537.36" version="26.2.14">
  <diagram name="Page-1" id="uG6kQtADmVbgrD_DwnVc">
    <mxGraphModel dx="2670" dy="2177" grid="1" gridSize="10" guides="1" tooltips="1" connect="1" arrows="1" fold="1" page="1" pageScale="1" pageWidth="827" pageHeight="1169" math="0" shadow="0">
      <root>
        <mxCell id="0" />
        <mxCell id="1" parent="0" />
        <mxCell id="oPdE8PlXWUorUfJiOUyH-1" value="" style="edgeStyle=orthogonalEdgeStyle;rounded=0;orthogonalLoop=1;jettySize=auto;html=1;" edge="1" parent="1" source="oPdE8PlXWUorUfJiOUyH-3" target="oPdE8PlXWUorUfJiOUyH-81">
          <mxGeometry relative="1" as="geometry" />
        </mxCell>
        <mxCell id="oPdE8PlXWUorUfJiOUyH-2" value="" style="edgeStyle=orthogonalEdgeStyle;rounded=0;orthogonalLoop=1;jettySize=auto;html=1;" edge="1" parent="1" source="oPdE8PlXWUorUfJiOUyH-3" target="oPdE8PlXWUorUfJiOUyH-21">
          <mxGeometry relative="1" as="geometry" />
        </mxCell>
        <mxCell id="oPdE8PlXWUorUfJiOUyH-3" value="&lt;div&gt;EQUIPO&lt;span style=&quot;color: rgba(0, 0, 0, 0); font-family: monospace; font-size: 0px; text-align: start; text-wrap-mode: nowrap; background-color: transparent;&quot;&gt;%3CmxGraphModel%3E%3Croot%3E%3CmxCell%20id%3D%220%22%2F%3E%3CmxCell%20id%3D%221%22%20parent%3D%220%22%2F%3E%3CmxCell%20id%3D%222%22%20value%3D%22%26lt%3Bdiv%26gt%3BSUCURSAL%26lt%3B%2Fdiv%26gt%3B%22%20style%3D%22rounded%3D1%3BwhiteSpace%3Dwrap%3Bhtml%3D1%3BfillColor%3D%23FF8000%3B%22%20vertex%3D%221%22%20parent%3D%221%22%3E%3CmxGeometry%20x%3D%22-80%22%20y%3D%22287.5%22%20width%3D%22110%22%20height%3D%2245%22%20as%3D%22geometry%22%2F%3E%3C%2FmxCell%3E%3C%2Froot%3E%3C%2FmxGraphModel%3E&lt;/span&gt;&lt;/div&gt;" style="rounded=1;whiteSpace=wrap;html=1;fillColor=#C3ABD0;" vertex="1" parent="1">
          <mxGeometry x="-524" y="292.5" width="110" height="45" as="geometry" />
        </mxCell>
        <mxCell id="oPdE8PlXWUorUfJiOUyH-4" value="&lt;div&gt;COMPONENTES&lt;/div&gt;" style="rounded=1;whiteSpace=wrap;html=1;fillColor=#D0527C;" vertex="1" parent="1">
          <mxGeometry x="79" y="242.5" width="110" height="45" as="geometry" />
        </mxCell>
        <mxCell id="oPdE8PlXWUorUfJiOUyH-5" value="&lt;div&gt;CLIENTE&lt;/div&gt;" style="rounded=1;whiteSpace=wrap;html=1;fillColor=#FF9999;" vertex="1" parent="1">
          <mxGeometry x="-240" y="640" width="110" height="45" as="geometry" />
        </mxCell>
        <mxCell id="oPdE8PlXWUorUfJiOUyH-6" style="edgeStyle=orthogonalEdgeStyle;rounded=0;orthogonalLoop=1;jettySize=auto;html=1;entryX=0.5;entryY=0;entryDx=0;entryDy=0;" edge="1" parent="1" source="oPdE8PlXWUorUfJiOUyH-8" target="oPdE8PlXWUorUfJiOUyH-16">
          <mxGeometry relative="1" as="geometry" />
        </mxCell>
        <mxCell id="oPdE8PlXWUorUfJiOUyH-7" style="edgeStyle=orthogonalEdgeStyle;rounded=0;orthogonalLoop=1;jettySize=auto;html=1;entryX=1;entryY=0.5;entryDx=0;entryDy=0;" edge="1" parent="1" source="oPdE8PlXWUorUfJiOUyH-8" target="oPdE8PlXWUorUfJiOUyH-14">
          <mxGeometry relative="1" as="geometry">
            <Array as="points">
              <mxPoint x="-145" y="220" />
              <mxPoint x="-290" y="220" />
            </Array>
          </mxGeometry>
        </mxCell>
        <mxCell id="oPdE8PlXWUorUfJiOUyH-8" value="&lt;div&gt;EMPLEADOS&lt;/div&gt;" style="rounded=1;whiteSpace=wrap;html=1;fillColor=#9AD57A;" vertex="1" parent="1">
          <mxGeometry x="-190" y="40" width="110" height="45" as="geometry" />
        </mxCell>
        <mxCell id="oPdE8PlXWUorUfJiOUyH-9" value="" style="edgeStyle=orthogonalEdgeStyle;rounded=0;orthogonalLoop=1;jettySize=auto;html=1;" edge="1" parent="1" source="oPdE8PlXWUorUfJiOUyH-10" target="oPdE8PlXWUorUfJiOUyH-12">
          <mxGeometry relative="1" as="geometry" />
        </mxCell>
        <mxCell id="oPdE8PlXWUorUfJiOUyH-10" value="SECCION" style="rounded=1;whiteSpace=wrap;html=1;fillColor=#75C1CD;" vertex="1" parent="1">
          <mxGeometry x="-418" y="-55" width="110" height="45" as="geometry" />
        </mxCell>
        <mxCell id="oPdE8PlXWUorUfJiOUyH-11" value="" style="edgeStyle=orthogonalEdgeStyle;rounded=0;orthogonalLoop=1;jettySize=auto;html=1;" edge="1" parent="1" source="oPdE8PlXWUorUfJiOUyH-12" target="oPdE8PlXWUorUfJiOUyH-8">
          <mxGeometry relative="1" as="geometry" />
        </mxCell>
        <mxCell id="oPdE8PlXWUorUfJiOUyH-12" value="TRABAJAN" style="rhombus;whiteSpace=wrap;html=1;fillColor=#E44FCF;" vertex="1" parent="1">
          <mxGeometry x="-325" y="62.5" width="80" height="80" as="geometry" />
        </mxCell>
        <mxCell id="oPdE8PlXWUorUfJiOUyH-13" value="" style="edgeStyle=orthogonalEdgeStyle;rounded=0;orthogonalLoop=1;jettySize=auto;html=1;" edge="1" parent="1" source="oPdE8PlXWUorUfJiOUyH-14" target="oPdE8PlXWUorUfJiOUyH-3">
          <mxGeometry relative="1" as="geometry" />
        </mxCell>
        <mxCell id="oPdE8PlXWUorUfJiOUyH-14" value="VENDEN" style="rhombus;whiteSpace=wrap;html=1;fillColor=#E44FCF;" vertex="1" parent="1">
          <mxGeometry x="-370" y="182.5" width="80" height="80" as="geometry" />
        </mxCell>
        <mxCell id="oPdE8PlXWUorUfJiOUyH-15" value="" style="edgeStyle=orthogonalEdgeStyle;rounded=0;orthogonalLoop=1;jettySize=auto;html=1;" edge="1" parent="1" source="oPdE8PlXWUorUfJiOUyH-16" target="oPdE8PlXWUorUfJiOUyH-4">
          <mxGeometry relative="1" as="geometry" />
        </mxCell>
        <mxCell id="oPdE8PlXWUorUfJiOUyH-16" value="VENDEN" style="rhombus;whiteSpace=wrap;html=1;fillColor=#E44FCF;" vertex="1" parent="1">
          <mxGeometry x="-125" y="130" width="80" height="80" as="geometry" />
        </mxCell>
        <mxCell id="oPdE8PlXWUorUfJiOUyH-17" value="" style="edgeStyle=orthogonalEdgeStyle;rounded=0;orthogonalLoop=1;jettySize=auto;html=1;" edge="1" parent="1" source="oPdE8PlXWUorUfJiOUyH-19" target="oPdE8PlXWUorUfJiOUyH-4">
          <mxGeometry relative="1" as="geometry">
            <Array as="points">
              <mxPoint x="90" y="460" />
              <mxPoint x="134" y="460" />
            </Array>
          </mxGeometry>
        </mxCell>
        <mxCell id="oPdE8PlXWUorUfJiOUyH-18" style="edgeStyle=orthogonalEdgeStyle;rounded=0;orthogonalLoop=1;jettySize=auto;html=1;entryX=1;entryY=0.5;entryDx=0;entryDy=0;" edge="1" parent="1" source="oPdE8PlXWUorUfJiOUyH-19" target="oPdE8PlXWUorUfJiOUyH-5">
          <mxGeometry relative="1" as="geometry">
            <Array as="points">
              <mxPoint y="600" />
              <mxPoint x="-85" y="600" />
              <mxPoint x="-85" y="663" />
            </Array>
          </mxGeometry>
        </mxCell>
        <mxCell id="oPdE8PlXWUorUfJiOUyH-19" value="VENDIDOS" style="rhombus;whiteSpace=wrap;html=1;fillColor=#E44FCF;" vertex="1" parent="1">
          <mxGeometry x="44" y="464" width="80" height="80" as="geometry" />
        </mxCell>
        <mxCell id="oPdE8PlXWUorUfJiOUyH-20" style="edgeStyle=orthogonalEdgeStyle;rounded=0;orthogonalLoop=1;jettySize=auto;html=1;entryX=0;entryY=0.75;entryDx=0;entryDy=0;" edge="1" parent="1" source="oPdE8PlXWUorUfJiOUyH-21" target="oPdE8PlXWUorUfJiOUyH-5">
          <mxGeometry relative="1" as="geometry">
            <Array as="points">
              <mxPoint x="-380" y="640" />
              <mxPoint x="-290" y="640" />
              <mxPoint x="-290" y="674" />
            </Array>
          </mxGeometry>
        </mxCell>
        <mxCell id="oPdE8PlXWUorUfJiOUyH-21" value="VENDIDOS" style="rhombus;whiteSpace=wrap;html=1;fillColor=#E44FCF;" vertex="1" parent="1">
          <mxGeometry x="-500" y="450" width="80" height="80" as="geometry" />
        </mxCell>
        <mxCell id="oPdE8PlXWUorUfJiOUyH-22" value="Nombre.E" style="ellipse;whiteSpace=wrap;html=1;" vertex="1" parent="1">
          <mxGeometry x="-260" y="-100" width="70" height="40" as="geometry" />
        </mxCell>
        <mxCell id="oPdE8PlXWUorUfJiOUyH-23" value="Apellidos.E" style="ellipse;whiteSpace=wrap;html=1;" vertex="1" parent="1">
          <mxGeometry x="-90" y="-30" width="70" height="40" as="geometry" />
        </mxCell>
        <mxCell id="oPdE8PlXWUorUfJiOUyH-24" value="ID.E" style="ellipse;whiteSpace=wrap;html=1;" vertex="1" parent="1">
          <mxGeometry x="-90" y="-90" width="70" height="40" as="geometry" />
        </mxCell>
        <mxCell id="oPdE8PlXWUorUfJiOUyH-25" style="edgeStyle=orthogonalEdgeStyle;rounded=0;orthogonalLoop=1;jettySize=auto;html=1;entryX=0.25;entryY=0;entryDx=0;entryDy=0;" edge="1" parent="1" source="oPdE8PlXWUorUfJiOUyH-26" target="oPdE8PlXWUorUfJiOUyH-8">
          <mxGeometry relative="1" as="geometry" />
        </mxCell>
        <mxCell id="oPdE8PlXWUorUfJiOUyH-26" value="NIF.E" style="ellipse;whiteSpace=wrap;html=1;" vertex="1" parent="1">
          <mxGeometry x="-170" y="-130" width="70" height="40" as="geometry" />
        </mxCell>
        <mxCell id="oPdE8PlXWUorUfJiOUyH-27" value="ID.S" style="ellipse;whiteSpace=wrap;html=1;" vertex="1" parent="1">
          <mxGeometry x="-240" y="-40" width="70" height="40" as="geometry" />
        </mxCell>
        <mxCell id="oPdE8PlXWUorUfJiOUyH-28" style="edgeStyle=orthogonalEdgeStyle;rounded=0;orthogonalLoop=1;jettySize=auto;html=1;entryX=0.818;entryY=0.022;entryDx=0;entryDy=0;entryPerimeter=0;" edge="1" parent="1" source="oPdE8PlXWUorUfJiOUyH-23" target="oPdE8PlXWUorUfJiOUyH-8">
          <mxGeometry relative="1" as="geometry" />
        </mxCell>
        <mxCell id="oPdE8PlXWUorUfJiOUyH-29" style="edgeStyle=orthogonalEdgeStyle;rounded=0;orthogonalLoop=1;jettySize=auto;html=1;entryX=0.609;entryY=-0.022;entryDx=0;entryDy=0;entryPerimeter=0;" edge="1" parent="1" source="oPdE8PlXWUorUfJiOUyH-27" target="oPdE8PlXWUorUfJiOUyH-8">
          <mxGeometry relative="1" as="geometry" />
        </mxCell>
        <mxCell id="oPdE8PlXWUorUfJiOUyH-30" style="edgeStyle=orthogonalEdgeStyle;rounded=0;orthogonalLoop=1;jettySize=auto;html=1;entryX=0.418;entryY=0;entryDx=0;entryDy=0;entryPerimeter=0;" edge="1" parent="1" source="oPdE8PlXWUorUfJiOUyH-22" target="oPdE8PlXWUorUfJiOUyH-8">
          <mxGeometry relative="1" as="geometry">
            <Array as="points">
              <mxPoint x="-150" y="-80" />
              <mxPoint x="-150" y="-10" />
              <mxPoint x="-144" y="-10" />
            </Array>
          </mxGeometry>
        </mxCell>
        <mxCell id="oPdE8PlXWUorUfJiOUyH-31" style="edgeStyle=orthogonalEdgeStyle;rounded=0;orthogonalLoop=1;jettySize=auto;html=1;" edge="1" parent="1" source="oPdE8PlXWUorUfJiOUyH-24">
          <mxGeometry relative="1" as="geometry">
            <mxPoint x="-116" y="40" as="targetPoint" />
            <Array as="points">
              <mxPoint x="-110" y="-70" />
              <mxPoint x="-110" y="-5" />
              <mxPoint x="-116" y="-5" />
            </Array>
          </mxGeometry>
        </mxCell>
        <mxCell id="oPdE8PlXWUorUfJiOUyH-32" value="Nombre.C" style="ellipse;whiteSpace=wrap;html=1;direction=west;" vertex="1" parent="1">
          <mxGeometry x="-260" y="870" width="70" height="40" as="geometry" />
        </mxCell>
        <mxCell id="oPdE8PlXWUorUfJiOUyH-33" style="edgeStyle=orthogonalEdgeStyle;rounded=0;orthogonalLoop=1;jettySize=auto;html=1;entryX=0.75;entryY=1;entryDx=0;entryDy=0;" edge="1" parent="1" source="oPdE8PlXWUorUfJiOUyH-34" target="oPdE8PlXWUorUfJiOUyH-5">
          <mxGeometry relative="1" as="geometry" />
        </mxCell>
        <mxCell id="oPdE8PlXWUorUfJiOUyH-34" value="Apellidos.C" style="ellipse;whiteSpace=wrap;html=1;" vertex="1" parent="1">
          <mxGeometry x="-150" y="740" width="70" height="40" as="geometry" />
        </mxCell>
        <mxCell id="oPdE8PlXWUorUfJiOUyH-35" value="ID.C" style="ellipse;whiteSpace=wrap;html=1;" vertex="1" parent="1">
          <mxGeometry x="-340" y="780" width="70" height="40" as="geometry" />
        </mxCell>
        <mxCell id="oPdE8PlXWUorUfJiOUyH-36" value="Domicilio.C" style="ellipse;whiteSpace=wrap;html=1;" vertex="1" parent="1">
          <mxGeometry x="-125" y="810" width="70" height="40" as="geometry" />
        </mxCell>
        <mxCell id="oPdE8PlXWUorUfJiOUyH-37" value="Telefono.C" style="ellipse;whiteSpace=wrap;html=1;" vertex="1" parent="1">
          <mxGeometry x="-70" y="770" width="60" height="40" as="geometry" />
        </mxCell>
        <mxCell id="oPdE8PlXWUorUfJiOUyH-38" value="NIF.C" style="ellipse;whiteSpace=wrap;html=1;" vertex="1" parent="1">
          <mxGeometry x="-345" y="710" width="70" height="40" as="geometry" />
        </mxCell>
        <mxCell id="oPdE8PlXWUorUfJiOUyH-39" value="Ciudad.C" style="ellipse;whiteSpace=wrap;html=1;" vertex="1" parent="1">
          <mxGeometry x="-200" y="850" width="70" height="40" as="geometry" />
        </mxCell>
        <mxCell id="oPdE8PlXWUorUfJiOUyH-40" style="edgeStyle=orthogonalEdgeStyle;rounded=0;orthogonalLoop=1;jettySize=auto;html=1;" edge="1" parent="1" source="oPdE8PlXWUorUfJiOUyH-41" target="oPdE8PlXWUorUfJiOUyH-5">
          <mxGeometry relative="1" as="geometry">
            <mxPoint x="-210" y="690" as="targetPoint" />
            <Array as="points">
              <mxPoint x="-265" y="752" />
              <mxPoint x="-210" y="752" />
            </Array>
          </mxGeometry>
        </mxCell>
        <mxCell id="oPdE8PlXWUorUfJiOUyH-41" value="Provincia.C" style="ellipse;whiteSpace=wrap;html=1;" vertex="1" parent="1">
          <mxGeometry x="-300" y="820" width="70" height="40" as="geometry" />
        </mxCell>
        <mxCell id="oPdE8PlXWUorUfJiOUyH-42" style="edgeStyle=orthogonalEdgeStyle;rounded=0;orthogonalLoop=1;jettySize=auto;html=1;entryX=0.634;entryY=0.97;entryDx=0;entryDy=0;entryPerimeter=0;" edge="1" parent="1" source="oPdE8PlXWUorUfJiOUyH-32" target="oPdE8PlXWUorUfJiOUyH-5">
          <mxGeometry relative="1" as="geometry" />
        </mxCell>
        <mxCell id="oPdE8PlXWUorUfJiOUyH-43" style="edgeStyle=orthogonalEdgeStyle;rounded=0;orthogonalLoop=1;jettySize=auto;html=1;entryX=0.145;entryY=1;entryDx=0;entryDy=0;entryPerimeter=0;" edge="1" parent="1" source="oPdE8PlXWUorUfJiOUyH-38" target="oPdE8PlXWUorUfJiOUyH-5">
          <mxGeometry relative="1" as="geometry" />
        </mxCell>
        <mxCell id="oPdE8PlXWUorUfJiOUyH-44" style="edgeStyle=orthogonalEdgeStyle;rounded=0;orthogonalLoop=1;jettySize=auto;html=1;entryX=0.091;entryY=0.978;entryDx=0;entryDy=0;entryPerimeter=0;" edge="1" parent="1" source="oPdE8PlXWUorUfJiOUyH-35" target="oPdE8PlXWUorUfJiOUyH-5">
          <mxGeometry relative="1" as="geometry" />
        </mxCell>
        <mxCell id="oPdE8PlXWUorUfJiOUyH-45" style="edgeStyle=orthogonalEdgeStyle;rounded=0;orthogonalLoop=1;jettySize=auto;html=1;entryX=0.445;entryY=0.955;entryDx=0;entryDy=0;entryPerimeter=0;" edge="1" parent="1" source="oPdE8PlXWUorUfJiOUyH-39" target="oPdE8PlXWUorUfJiOUyH-5">
          <mxGeometry relative="1" as="geometry" />
        </mxCell>
        <mxCell id="oPdE8PlXWUorUfJiOUyH-46" style="edgeStyle=orthogonalEdgeStyle;rounded=0;orthogonalLoop=1;jettySize=auto;html=1;entryX=0.552;entryY=0.939;entryDx=0;entryDy=0;entryPerimeter=0;" edge="1" parent="1" source="oPdE8PlXWUorUfJiOUyH-36" target="oPdE8PlXWUorUfJiOUyH-5">
          <mxGeometry relative="1" as="geometry" />
        </mxCell>
        <mxCell id="oPdE8PlXWUorUfJiOUyH-47" value="" style="edgeStyle=orthogonalEdgeStyle;rounded=0;orthogonalLoop=1;jettySize=auto;html=1;" edge="1" parent="1" source="oPdE8PlXWUorUfJiOUyH-48" target="oPdE8PlXWUorUfJiOUyH-4">
          <mxGeometry relative="1" as="geometry" />
        </mxCell>
        <mxCell id="oPdE8PlXWUorUfJiOUyH-48" value="ID.Co" style="ellipse;whiteSpace=wrap;html=1;" vertex="1" parent="1">
          <mxGeometry x="244" y="252.5" width="70" height="40" as="geometry" />
        </mxCell>
        <mxCell id="oPdE8PlXWUorUfJiOUyH-49" style="edgeStyle=orthogonalEdgeStyle;rounded=0;orthogonalLoop=1;jettySize=auto;html=1;entryX=1;entryY=0.75;entryDx=0;entryDy=0;" edge="1" parent="1" source="oPdE8PlXWUorUfJiOUyH-50" target="oPdE8PlXWUorUfJiOUyH-4">
          <mxGeometry relative="1" as="geometry" />
        </mxCell>
        <mxCell id="oPdE8PlXWUorUfJiOUyH-50" value="Descripcion.Co" style="ellipse;whiteSpace=wrap;html=1;" vertex="1" parent="1">
          <mxGeometry x="239" y="312.5" width="100" height="50" as="geometry" />
        </mxCell>
        <mxCell id="oPdE8PlXWUorUfJiOUyH-51" style="edgeStyle=orthogonalEdgeStyle;rounded=0;orthogonalLoop=1;jettySize=auto;html=1;entryX=1;entryY=0.25;entryDx=0;entryDy=0;" edge="1" parent="1" source="oPdE8PlXWUorUfJiOUyH-52" target="oPdE8PlXWUorUfJiOUyH-4">
          <mxGeometry relative="1" as="geometry" />
        </mxCell>
        <mxCell id="oPdE8PlXWUorUfJiOUyH-52" value="Precio.Co" style="ellipse;whiteSpace=wrap;html=1;" vertex="1" parent="1">
          <mxGeometry x="284" y="212.5" width="70" height="40" as="geometry" />
        </mxCell>
        <mxCell id="oPdE8PlXWUorUfJiOUyH-53" style="edgeStyle=orthogonalEdgeStyle;rounded=0;orthogonalLoop=1;jettySize=auto;html=1;entryX=1;entryY=0;entryDx=0;entryDy=0;" edge="1" parent="1" source="oPdE8PlXWUorUfJiOUyH-54" target="oPdE8PlXWUorUfJiOUyH-4">
          <mxGeometry relative="1" as="geometry" />
        </mxCell>
        <mxCell id="oPdE8PlXWUorUfJiOUyH-54" value="Stock.Co" style="ellipse;whiteSpace=wrap;html=1;" vertex="1" parent="1">
          <mxGeometry x="254" y="162.5" width="70" height="40" as="geometry" />
        </mxCell>
        <mxCell id="oPdE8PlXWUorUfJiOUyH-55" style="edgeStyle=orthogonalEdgeStyle;rounded=0;orthogonalLoop=1;jettySize=auto;html=1;entryX=0;entryY=0.25;entryDx=0;entryDy=0;" edge="1" parent="1" source="oPdE8PlXWUorUfJiOUyH-56" target="oPdE8PlXWUorUfJiOUyH-3">
          <mxGeometry relative="1" as="geometry">
            <mxPoint x="-526" y="302.5" as="targetPoint" />
          </mxGeometry>
        </mxCell>
        <mxCell id="oPdE8PlXWUorUfJiOUyH-56" value="ID.E" style="ellipse;whiteSpace=wrap;html=1;" vertex="1" parent="1">
          <mxGeometry x="-671" y="292.5" width="70" height="40" as="geometry" />
        </mxCell>
        <mxCell id="oPdE8PlXWUorUfJiOUyH-57" style="edgeStyle=orthogonalEdgeStyle;rounded=0;orthogonalLoop=1;jettySize=auto;html=1;entryX=0;entryY=0.5;entryDx=0;entryDy=0;" edge="1" parent="1" source="oPdE8PlXWUorUfJiOUyH-58" target="oPdE8PlXWUorUfJiOUyH-3">
          <mxGeometry relative="1" as="geometry" />
        </mxCell>
        <mxCell id="oPdE8PlXWUorUfJiOUyH-58" value="Descripcion.E" style="ellipse;whiteSpace=wrap;html=1;" vertex="1" parent="1">
          <mxGeometry x="-686" y="342.5" width="100" height="50" as="geometry" />
        </mxCell>
        <mxCell id="oPdE8PlXWUorUfJiOUyH-59" value="Precio.E" style="ellipse;whiteSpace=wrap;html=1;" vertex="1" parent="1">
          <mxGeometry x="-671" y="252.5" width="70" height="40" as="geometry" />
        </mxCell>
        <mxCell id="oPdE8PlXWUorUfJiOUyH-60" value="Stock.E" style="ellipse;whiteSpace=wrap;html=1;" vertex="1" parent="1">
          <mxGeometry x="-661" y="202.5" width="70" height="40" as="geometry" />
        </mxCell>
        <mxCell id="oPdE8PlXWUorUfJiOUyH-61" style="edgeStyle=orthogonalEdgeStyle;rounded=0;orthogonalLoop=1;jettySize=auto;html=1;entryX=0.069;entryY=0.034;entryDx=0;entryDy=0;entryPerimeter=0;" edge="1" parent="1" source="oPdE8PlXWUorUfJiOUyH-59" target="oPdE8PlXWUorUfJiOUyH-3">
          <mxGeometry relative="1" as="geometry" />
        </mxCell>
        <mxCell id="oPdE8PlXWUorUfJiOUyH-62" style="edgeStyle=orthogonalEdgeStyle;rounded=0;orthogonalLoop=1;jettySize=auto;html=1;entryX=0.061;entryY=-0.024;entryDx=0;entryDy=0;entryPerimeter=0;" edge="1" parent="1" source="oPdE8PlXWUorUfJiOUyH-60" target="oPdE8PlXWUorUfJiOUyH-3">
          <mxGeometry relative="1" as="geometry" />
        </mxCell>
        <mxCell id="oPdE8PlXWUorUfJiOUyH-63" style="edgeStyle=orthogonalEdgeStyle;rounded=0;orthogonalLoop=1;jettySize=auto;html=1;entryX=0.867;entryY=0.966;entryDx=0;entryDy=0;entryPerimeter=0;" edge="1" parent="1" source="oPdE8PlXWUorUfJiOUyH-37" target="oPdE8PlXWUorUfJiOUyH-5">
          <mxGeometry relative="1" as="geometry">
            <Array as="points">
              <mxPoint x="-160" y="790" />
              <mxPoint x="-160" y="683" />
            </Array>
          </mxGeometry>
        </mxCell>
        <mxCell id="oPdE8PlXWUorUfJiOUyH-64" style="edgeStyle=orthogonalEdgeStyle;rounded=0;orthogonalLoop=1;jettySize=auto;html=1;entryX=1;entryY=1;entryDx=0;entryDy=0;" edge="1" parent="1" source="oPdE8PlXWUorUfJiOUyH-65" target="oPdE8PlXWUorUfJiOUyH-19">
          <mxGeometry relative="1" as="geometry" />
        </mxCell>
        <mxCell id="oPdE8PlXWUorUfJiOUyH-65" value="Cantidad.Pv" style="ellipse;whiteSpace=wrap;html=1;" vertex="1" parent="1">
          <mxGeometry x="194" y="564" width="70" height="40" as="geometry" />
        </mxCell>
        <mxCell id="oPdE8PlXWUorUfJiOUyH-66" value="FechaE.Pv" style="ellipse;whiteSpace=wrap;html=1;" vertex="1" parent="1">
          <mxGeometry x="194" y="514" width="70" height="40" as="geometry" />
        </mxCell>
        <mxCell id="oPdE8PlXWUorUfJiOUyH-67" style="edgeStyle=orthogonalEdgeStyle;rounded=0;orthogonalLoop=1;jettySize=auto;html=1;entryX=0.798;entryY=0.675;entryDx=0;entryDy=0;entryPerimeter=0;" edge="1" parent="1" source="oPdE8PlXWUorUfJiOUyH-66" target="oPdE8PlXWUorUfJiOUyH-19">
          <mxGeometry relative="1" as="geometry">
            <Array as="points">
              <mxPoint x="159" y="544" />
              <mxPoint x="159" y="518" />
            </Array>
          </mxGeometry>
        </mxCell>
        <mxCell id="oPdE8PlXWUorUfJiOUyH-68" value="Cantidad.Pv" style="ellipse;whiteSpace=wrap;html=1;" vertex="1" parent="1">
          <mxGeometry x="-585" y="525" width="70" height="40" as="geometry" />
        </mxCell>
        <mxCell id="oPdE8PlXWUorUfJiOUyH-69" value="FechaE.Pv" style="ellipse;whiteSpace=wrap;html=1;" vertex="1" parent="1">
          <mxGeometry x="-610" y="480" width="70" height="40" as="geometry" />
        </mxCell>
        <mxCell id="oPdE8PlXWUorUfJiOUyH-70" value="ID.C" style="ellipse;whiteSpace=wrap;html=1;" vertex="1" parent="1">
          <mxGeometry x="244" y="594" width="70" height="40" as="geometry" />
        </mxCell>
        <mxCell id="oPdE8PlXWUorUfJiOUyH-71" value="ID.Pvc" style="ellipse;whiteSpace=wrap;html=1;" vertex="1" parent="1">
          <mxGeometry x="179" y="614" width="70" height="40" as="geometry" />
        </mxCell>
        <mxCell id="oPdE8PlXWUorUfJiOUyH-72" value="ID.Pve" style="ellipse;whiteSpace=wrap;html=1;" vertex="1" parent="1">
          <mxGeometry x="-630" y="570" width="70" height="40" as="geometry" />
        </mxCell>
        <mxCell id="oPdE8PlXWUorUfJiOUyH-73" style="edgeStyle=orthogonalEdgeStyle;rounded=0;orthogonalLoop=1;jettySize=auto;html=1;entryX=0;entryY=1;entryDx=0;entryDy=0;" edge="1" parent="1" source="oPdE8PlXWUorUfJiOUyH-74" target="oPdE8PlXWUorUfJiOUyH-21">
          <mxGeometry relative="1" as="geometry" />
        </mxCell>
        <mxCell id="oPdE8PlXWUorUfJiOUyH-74" value="ID.C" style="ellipse;whiteSpace=wrap;html=1;" vertex="1" parent="1">
          <mxGeometry x="-560" y="605" width="70" height="40" as="geometry" />
        </mxCell>
        <mxCell id="oPdE8PlXWUorUfJiOUyH-75" style="edgeStyle=orthogonalEdgeStyle;rounded=0;orthogonalLoop=1;jettySize=auto;html=1;entryX=0.838;entryY=0.714;entryDx=0;entryDy=0;entryPerimeter=0;" edge="1" parent="1" source="oPdE8PlXWUorUfJiOUyH-70" target="oPdE8PlXWUorUfJiOUyH-19">
          <mxGeometry relative="1" as="geometry" />
        </mxCell>
        <mxCell id="oPdE8PlXWUorUfJiOUyH-76" style="edgeStyle=orthogonalEdgeStyle;rounded=0;orthogonalLoop=1;jettySize=auto;html=1;entryX=0.653;entryY=0.925;entryDx=0;entryDy=0;entryPerimeter=0;" edge="1" parent="1" source="oPdE8PlXWUorUfJiOUyH-71" target="oPdE8PlXWUorUfJiOUyH-19">
          <mxGeometry relative="1" as="geometry" />
        </mxCell>
        <mxCell id="oPdE8PlXWUorUfJiOUyH-77" style="edgeStyle=orthogonalEdgeStyle;rounded=0;orthogonalLoop=1;jettySize=auto;html=1;entryX=0.351;entryY=0.892;entryDx=0;entryDy=0;entryPerimeter=0;" edge="1" parent="1" source="oPdE8PlXWUorUfJiOUyH-72" target="oPdE8PlXWUorUfJiOUyH-21">
          <mxGeometry relative="1" as="geometry" />
        </mxCell>
        <mxCell id="oPdE8PlXWUorUfJiOUyH-78" style="edgeStyle=orthogonalEdgeStyle;rounded=0;orthogonalLoop=1;jettySize=auto;html=1;entryX=0.14;entryY=0.563;entryDx=0;entryDy=0;entryPerimeter=0;" edge="1" parent="1" source="oPdE8PlXWUorUfJiOUyH-69" target="oPdE8PlXWUorUfJiOUyH-21">
          <mxGeometry relative="1" as="geometry" />
        </mxCell>
        <mxCell id="oPdE8PlXWUorUfJiOUyH-79" style="edgeStyle=orthogonalEdgeStyle;rounded=0;orthogonalLoop=1;jettySize=auto;html=1;entryX=0.166;entryY=0.695;entryDx=0;entryDy=0;entryPerimeter=0;" edge="1" parent="1" source="oPdE8PlXWUorUfJiOUyH-68" target="oPdE8PlXWUorUfJiOUyH-21">
          <mxGeometry relative="1" as="geometry" />
        </mxCell>
        <mxCell id="oPdE8PlXWUorUfJiOUyH-112" style="edgeStyle=orthogonalEdgeStyle;rounded=0;orthogonalLoop=1;jettySize=auto;html=1;entryX=0;entryY=0.5;entryDx=0;entryDy=0;" edge="1" parent="1" source="oPdE8PlXWUorUfJiOUyH-81" target="oPdE8PlXWUorUfJiOUyH-4">
          <mxGeometry relative="1" as="geometry">
            <Array as="points">
              <mxPoint x="-50" y="265" />
            </Array>
          </mxGeometry>
        </mxCell>
        <mxCell id="oPdE8PlXWUorUfJiOUyH-81" value="CONSTA" style="rhombus;whiteSpace=wrap;html=1;fillColor=#E44FCF;" vertex="1" parent="1">
          <mxGeometry x="-90" y="330" width="80" height="80" as="geometry" />
        </mxCell>
        <mxCell id="oPdE8PlXWUorUfJiOUyH-82" style="edgeStyle=orthogonalEdgeStyle;rounded=0;orthogonalLoop=1;jettySize=auto;html=1;entryX=0.25;entryY=0;entryDx=0;entryDy=0;" edge="1" parent="1" source="oPdE8PlXWUorUfJiOUyH-83" target="oPdE8PlXWUorUfJiOUyH-3">
          <mxGeometry relative="1" as="geometry">
            <Array as="points">
              <mxPoint x="-566" y="172.5" />
              <mxPoint x="-566" y="242.5" />
              <mxPoint x="-496" y="242.5" />
            </Array>
          </mxGeometry>
        </mxCell>
        <mxCell id="oPdE8PlXWUorUfJiOUyH-83" value="CantidadC.E" style="ellipse;whiteSpace=wrap;html=1;" vertex="1" parent="1">
          <mxGeometry x="-671" y="152.5" width="80" height="40" as="geometry" />
        </mxCell>
        <mxCell id="oPdE8PlXWUorUfJiOUyH-84" style="edgeStyle=orthogonalEdgeStyle;rounded=0;orthogonalLoop=1;jettySize=auto;html=1;entryX=0.5;entryY=0;entryDx=0;entryDy=0;" edge="1" parent="1" source="oPdE8PlXWUorUfJiOUyH-85" target="oPdE8PlXWUorUfJiOUyH-10">
          <mxGeometry relative="1" as="geometry" />
        </mxCell>
        <mxCell id="oPdE8PlXWUorUfJiOUyH-85" value="ID.S" style="ellipse;whiteSpace=wrap;html=1;" vertex="1" parent="1">
          <mxGeometry x="-435" y="-145" width="70" height="40" as="geometry" />
        </mxCell>
        <mxCell id="oPdE8PlXWUorUfJiOUyH-86" style="edgeStyle=orthogonalEdgeStyle;rounded=0;orthogonalLoop=1;jettySize=auto;html=1;entryX=0.75;entryY=0;entryDx=0;entryDy=0;" edge="1" parent="1" source="oPdE8PlXWUorUfJiOUyH-87" target="oPdE8PlXWUorUfJiOUyH-10">
          <mxGeometry relative="1" as="geometry" />
        </mxCell>
        <mxCell id="oPdE8PlXWUorUfJiOUyH-87" value="Nombre.S" style="ellipse;whiteSpace=wrap;html=1;" vertex="1" parent="1">
          <mxGeometry x="-355" y="-145" width="70" height="40" as="geometry" />
        </mxCell>
        <mxCell id="oPdE8PlXWUorUfJiOUyH-88" style="edgeStyle=orthogonalEdgeStyle;rounded=0;orthogonalLoop=1;jettySize=auto;html=1;entryX=1;entryY=0.5;entryDx=0;entryDy=0;" edge="1" parent="1" source="oPdE8PlXWUorUfJiOUyH-89" target="oPdE8PlXWUorUfJiOUyH-19">
          <mxGeometry relative="1" as="geometry" />
        </mxCell>
        <mxCell id="oPdE8PlXWUorUfJiOUyH-89" value="ID.E" style="ellipse;whiteSpace=wrap;html=1;" vertex="1" parent="1">
          <mxGeometry x="144" y="664" width="70" height="40" as="geometry" />
        </mxCell>
        <mxCell id="oPdE8PlXWUorUfJiOUyH-90" value="ID.E" style="ellipse;whiteSpace=wrap;html=1;" vertex="1" parent="1">
          <mxGeometry x="-578" y="440" width="70" height="40" as="geometry" />
        </mxCell>
        <mxCell id="oPdE8PlXWUorUfJiOUyH-91" style="edgeStyle=orthogonalEdgeStyle;rounded=0;orthogonalLoop=1;jettySize=auto;html=1;entryX=0.409;entryY=0.138;entryDx=0;entryDy=0;entryPerimeter=0;" edge="1" parent="1" source="oPdE8PlXWUorUfJiOUyH-90" target="oPdE8PlXWUorUfJiOUyH-21">
          <mxGeometry relative="1" as="geometry" />
        </mxCell>
        <mxCell id="oPdE8PlXWUorUfJiOUyH-92" style="edgeStyle=orthogonalEdgeStyle;rounded=0;orthogonalLoop=1;jettySize=auto;html=1;entryX=1;entryY=1;entryDx=0;entryDy=0;" edge="1" parent="1" source="oPdE8PlXWUorUfJiOUyH-93" target="oPdE8PlXWUorUfJiOUyH-4">
          <mxGeometry relative="1" as="geometry">
            <Array as="points">
              <mxPoint x="189" y="302.5" />
            </Array>
          </mxGeometry>
        </mxCell>
        <mxCell id="oPdE8PlXWUorUfJiOUyH-93" value="ID.E" style="ellipse;whiteSpace=wrap;html=1;" vertex="1" parent="1">
          <mxGeometry x="344" y="272.5" width="70" height="40" as="geometry" />
        </mxCell>
        <mxCell id="oPdE8PlXWUorUfJiOUyH-94" value="1:N" style="text;html=1;align=center;verticalAlign=middle;resizable=0;points=[];autosize=1;strokeColor=none;fillColor=none;" vertex="1" parent="1">
          <mxGeometry x="-225" y="40" width="40" height="30" as="geometry" />
        </mxCell>
        <mxCell id="oPdE8PlXWUorUfJiOUyH-95" value="1:1" style="text;html=1;align=center;verticalAlign=middle;resizable=0;points=[];autosize=1;strokeColor=none;fillColor=none;" vertex="1" parent="1">
          <mxGeometry x="-315" y="-55" width="40" height="30" as="geometry" />
        </mxCell>
        <mxCell id="oPdE8PlXWUorUfJiOUyH-96" value="1:N" style="text;html=1;align=center;verticalAlign=middle;resizable=0;points=[];autosize=1;strokeColor=none;fillColor=none;" vertex="1" parent="1">
          <mxGeometry x="-330" y="32.5" width="40" height="30" as="geometry" />
        </mxCell>
        <mxCell id="oPdE8PlXWUorUfJiOUyH-97" value="1:N" style="text;html=1;align=center;verticalAlign=middle;resizable=0;points=[];autosize=1;strokeColor=none;fillColor=none;" vertex="1" parent="1">
          <mxGeometry x="-476" y="267.5" width="40" height="30" as="geometry" />
        </mxCell>
        <mxCell id="oPdE8PlXWUorUfJiOUyH-98" value="1:1" style="text;html=1;align=center;verticalAlign=middle;resizable=0;points=[];autosize=1;strokeColor=none;fillColor=none;" vertex="1" parent="1">
          <mxGeometry x="-180" y="120" width="40" height="30" as="geometry" />
        </mxCell>
        <mxCell id="oPdE8PlXWUorUfJiOUyH-99" value="1:N" style="text;html=1;align=center;verticalAlign=middle;resizable=0;points=[];autosize=1;strokeColor=none;fillColor=none;" vertex="1" parent="1">
          <mxGeometry x="-350" y="162.5" width="40" height="30" as="geometry" />
        </mxCell>
        <mxCell id="oPdE8PlXWUorUfJiOUyH-100" value="1:1" style="text;html=1;align=center;verticalAlign=middle;resizable=0;points=[];autosize=1;strokeColor=none;fillColor=none;" vertex="1" parent="1">
          <mxGeometry x="-140" y="85" width="40" height="30" as="geometry" />
        </mxCell>
        <mxCell id="oPdE8PlXWUorUfJiOUyH-101" value="1:N" style="text;html=1;align=center;verticalAlign=middle;resizable=0;points=[];autosize=1;strokeColor=none;fillColor=none;" vertex="1" parent="1">
          <mxGeometry x="-105" y="202.5" width="40" height="30" as="geometry" />
        </mxCell>
        <mxCell id="oPdE8PlXWUorUfJiOUyH-102" value="1:N" style="text;html=1;align=center;verticalAlign=middle;resizable=0;points=[];autosize=1;strokeColor=none;fillColor=none;" vertex="1" parent="1">
          <mxGeometry x="124" y="212.5" width="40" height="30" as="geometry" />
        </mxCell>
        <mxCell id="oPdE8PlXWUorUfJiOUyH-103" value="1:1" style="text;html=1;align=center;verticalAlign=middle;resizable=0;points=[];autosize=1;strokeColor=none;fillColor=none;" vertex="1" parent="1">
          <mxGeometry x="-140" y="635" width="40" height="30" as="geometry" />
        </mxCell>
        <mxCell id="oPdE8PlXWUorUfJiOUyH-104" value="1:N" style="text;html=1;align=center;verticalAlign=middle;resizable=0;points=[];autosize=1;strokeColor=none;fillColor=none;" vertex="1" parent="1">
          <mxGeometry x="134" y="282.5" width="40" height="30" as="geometry" />
        </mxCell>
        <mxCell id="oPdE8PlXWUorUfJiOUyH-105" value="N:1" style="text;html=1;align=center;verticalAlign=middle;resizable=0;points=[];autosize=1;strokeColor=none;fillColor=none;" vertex="1" parent="1">
          <mxGeometry x="14" y="475" width="40" height="30" as="geometry" />
        </mxCell>
        <mxCell id="oPdE8PlXWUorUfJiOUyH-106" value="N:1" style="text;html=1;align=center;verticalAlign=middle;resizable=0;points=[];autosize=1;strokeColor=none;fillColor=none;" vertex="1" parent="1">
          <mxGeometry x="-434" y="460" width="40" height="30" as="geometry" />
        </mxCell>
        <mxCell id="oPdE8PlXWUorUfJiOUyH-107" value="1:N" style="text;html=1;align=center;verticalAlign=middle;resizable=0;points=[];autosize=1;strokeColor=none;fillColor=none;" vertex="1" parent="1">
          <mxGeometry x="-476" y="332.5" width="40" height="30" as="geometry" />
        </mxCell>
        <mxCell id="oPdE8PlXWUorUfJiOUyH-108" value="1:1" style="text;html=1;align=center;verticalAlign=middle;resizable=0;points=[];autosize=1;strokeColor=none;fillColor=none;" vertex="1" parent="1">
          <mxGeometry x="-275" y="645" width="40" height="30" as="geometry" />
        </mxCell>
        <mxCell id="oPdE8PlXWUorUfJiOUyH-109" value="1:N" style="text;html=1;align=center;verticalAlign=middle;resizable=0;points=[];autosize=1;strokeColor=none;fillColor=none;" vertex="1" parent="1">
          <mxGeometry x="44" y="242.5" width="40" height="30" as="geometry" />
        </mxCell>
        <mxCell id="oPdE8PlXWUorUfJiOUyH-111" value="1:N" style="text;html=1;align=center;verticalAlign=middle;resizable=0;points=[];autosize=1;strokeColor=none;fillColor=none;" vertex="1" parent="1">
          <mxGeometry x="-30" y="337.5" width="40" height="30" as="geometry" />
        </mxCell>
      </root>
    </mxGraphModel>
  </diagram>
</mxfile>
